<svg width="250" height="300" viewBox="0 0 250 300" fill="none" xmlns="http://www.w3.org/2000/svg">
<g clip-path="url(#clip0_12_7)">
<path d="M113.124 164.418C112.338 168.934 109.534 171.864 106.861 170.958C104.187 170.053 102.657 165.654 103.443 161.137C103.736 159.326 104.424 157.664 105.452 156.306L109 137.239L117.295 140.37L112.915 158.836C113.384 160.706 113.454 162.623 113.115 164.418H113.124Z" fill="#F8A8AB"/>
<path d="M131.821 289.79H122.084V273.966H131.821V289.79Z" fill="#F8A8AB"/>
<path d="M123.163 298.855C124.828 299.025 133.161 299.782 133.579 297.593C133.96 295.585 133.398 293.486 133.319 293.199C132.519 284.07 132.221 283.968 132.04 283.91C131.756 283.814 130.929 284.267 129.585 285.257L129.501 285.321L129.483 285.433C129.459 285.577 128.864 288.927 126.042 288.41C124.107 288.059 123.479 287.569 123.28 287.329C123.442 287.244 123.647 287.095 123.791 286.839C124 286.466 124.037 285.987 123.898 285.412C123.535 283.894 122.447 281.651 122.401 281.561L122.275 281.305L111.208 289.859L104.373 292.096C103.857 292.266 103.443 292.687 103.234 293.252C102.945 294.04 103.122 294.956 103.68 295.531C104.922 296.81 107.386 298.999 109.976 299.27C110.664 299.345 111.576 299.372 112.599 299.372C116.872 299.372 123.112 298.866 123.159 298.855H123.163Z" fill="#2F2E43"/>
<path d="M158.796 289.79H149.059V273.966H158.796V289.79Z" fill="#F8A8AB"/>
<path d="M150.138 298.855C151.802 299.025 160.135 299.782 160.554 297.593C160.935 295.585 160.372 293.486 160.293 293.199C159.493 284.07 159.196 283.968 159.014 283.91C158.731 283.814 157.903 284.267 156.559 285.257L156.476 285.321L156.457 285.433C156.434 285.577 155.838 288.927 153.016 288.41C151.082 288.059 150.454 287.569 150.254 287.329C150.417 287.244 150.621 287.095 150.765 286.839C150.975 286.466 151.012 285.987 150.872 285.412C150.51 283.894 149.422 281.651 149.375 281.561L149.249 281.305L138.183 289.859L131.347 292.096C130.831 292.266 130.417 292.687 130.208 293.252C129.92 294.04 130.096 294.956 130.654 295.531C131.896 296.81 134.36 298.999 136.95 299.27C137.639 299.345 138.55 299.372 139.573 299.372C143.846 299.372 150.086 298.866 150.133 298.855H150.138Z" fill="#2F2E43"/>
<path d="M150.905 53.4105L135.806 59.0935V34.1991H149.505L150.905 53.4105Z" fill="#F8A8AB"/>
<path d="M137.676 41.0912C129.368 41.0912 122.633 33.377 122.633 23.8611C122.633 14.3452 129.368 6.63104 137.676 6.63104C145.984 6.63104 152.718 14.3452 152.718 23.8611C152.718 33.377 145.984 41.0912 137.676 41.0912Z" fill="#F8A8AB"/>
<path d="M141.507 25.2085L139.433 28.09L135.681 20.5694C135.681 20.5694 130.892 20.8517 130.892 16.7826C130.892 12.7134 126.497 12.5962 126.497 12.5962C126.497 12.5962 120.28 0.159689 133.161 3.43526C133.161 3.43526 142.093 -3.57393 146.539 2.41797C146.539 2.41797 160.163 10.274 156.262 23.9569L149.784 38.0605L148.315 34.8701C148.315 34.8701 149.203 21.4696 141.503 25.2032L141.507 25.2085Z" fill="#2F2E43"/>
<path d="M250 299.366C250 299.718 249.754 300 249.447 300H0.553345C0.246445 300 0 299.718 0 299.366C0 299.015 0.246445 298.732 0.553345 298.732H249.447C249.754 298.732 250 299.015 250 299.366Z" fill="#484565"/>
<path d="M97.1096 185.888L125.535 175.422C129.041 174.133 132.807 176.29 134.002 180.284L146.845 223.181C148.157 227.559 145.841 232.268 141.893 233.258L109.223 241.444C105.633 242.345 102.071 239.793 101.206 235.703L92.6084 195.086C91.7761 191.144 93.7384 187.128 97.1096 185.888Z" fill="#F2F2F2"/>
<path d="M99.9926 194.937L101.825 194.564C100.653 186.937 99.0347 166.602 105.568 164.109C108.734 162.9 111.924 165.014 115.044 170.399C117.495 174.633 118.927 179.32 118.941 179.368L120.699 178.671C120.448 177.845 114.473 158.463 104.982 162.085C95.603 165.664 99.8112 193.738 99.9972 194.931L99.9926 194.937Z" fill="#2F2E43"/>
<path d="M121.545 135.385H172.355L159.921 282.221L145.506 281.156L144.795 175.411L135.723 221.818L133.068 280.357L119.932 281.156L118.406 214.563L121.545 135.385Z" fill="#2F2E43"/>
<path d="M151.728 44.3081L134.523 49.1017L119.815 121.905L121.545 135.385L164.627 143.736L172.355 135.385L151.728 44.3081Z" fill="#FEFEFE"/>
<path d="M151.756 40.6651L157.638 48.2228L169.57 51.5037L189.913 155.108L150.714 162.713L139.796 57.1974L151.756 40.6651Z" fill="#2F2E43"/>
<path d="M134.532 44.4413L137.601 56.9684L123.396 169.307H116.067L119.448 59.3758L129.399 50.3213L134.532 44.4413Z" fill="#2F2E43"/>
<path d="M125.349 57.9857L119.448 59.3758C119.448 59.3758 116.863 60.4623 115.923 68.8776C114.989 77.2929 114.821 105.553 114.821 105.553L104.787 151.145L116.184 155.449L121.55 130.916L125.353 57.9803L125.349 57.9857Z" fill="#2F2E43"/>
<path d="M135.193 52.1376L138.048 58.1348L132.338 128.482L139.001 135.571L145.19 129.031L140.666 58.4064L147.259 52.1376L144.953 50.2255L142.572 53.4957L137.811 52.4092L135.909 49.1336L135.193 52.1376Z" fill="#2F2E43"/>
<path d="M163.237 146.74C160.842 150.442 157.215 151.715 155.136 149.59C153.058 147.465 153.314 142.74 155.708 139.033C156.648 137.537 157.889 136.376 159.331 135.651L169.653 120.147L175.987 127.039L165.138 141.59C164.864 143.513 164.213 145.276 163.237 146.735V146.74Z" fill="#F8A8AB"/>
<path d="M164.855 53.2028L169.57 51.5038C169.57 51.5038 175.959 53.32 178.075 62.4596L188.402 106.986L170.886 142.203L161.525 129.185L170.342 96.8558L164.85 53.2028H164.855Z" fill="#2F2E43"/>
</g>
<defs>
<clipPath id="clip0_12_7">
<rect width="250" height="300.005" fill="white" transform="matrix(-1 0 0 1 250 -0.00473022)"/>
</clipPath>
</defs>
</svg>
